<?xml version="1.0" encoding="UTF-8"?>
<svg width="48px" height="48px" viewBox="0 0 48 48" version="1.1" xmlns="http://www.w3.org/2000/svg" xmlns:xlink="http://www.w3.org/1999/xlink">
    <title>icon/每日优选@3x</title>
    <defs>
        <linearGradient x1="58.9148651%" y1="20.0516057%" x2="31.6953312%" y2="100%" id="linearGradient-1">
            <stop stop-color="#FEB978" offset="0%"></stop>
            <stop stop-color="#E28C26" offset="100%"></stop>
        </linearGradient>
        <linearGradient x1="58.9148651%" y1="23.7706514%" x2="31.6953312%" y2="93.7909096%" id="linearGradient-2">
            <stop stop-color="#FEB978" offset="0%"></stop>
            <stop stop-color="#E28C26" offset="100%"></stop>
        </linearGradient>
        <linearGradient x1="91.867727%" y1="9.90265258%" x2="8.025098%" y2="100%" id="linearGradient-3">
            <stop stop-color="#F6C58C" offset="0%"></stop>
            <stop stop-color="#FBE3C7" offset="100%"></stop>
        </linearGradient>
    </defs>
    <g id="页面-1" stroke="none" stroke-width="1" fill="none" fill-rule="evenodd">
        <g id="我的靓号-SVIP" transform="translate(-26.000000, -1227.000000)">
            <g id="靓号特权" transform="translate(6.000000, 1169.000000)">
                <g id="icon/每日优选" transform="translate(20.000000, 58.000000)">
                    <circle id="椭圆形" fill="url(#linearGradient-1)" fill-rule="nonzero" opacity="0.200000003" cx="24" cy="24" r="24"></circle>
                    <rect id="矩形" x="7.2" y="6.43278945" width="36" height="36"></rect>
                    <path d="M28.9470313,10.1146076 C29.6742695,10.1146076 30.2631263,10.7034645 30.2631263,11.4307026 L30.2622727,12.0396076 L35.2566323,12.0401695 C35.9838704,12.0401695 36.5727273,12.6290263 36.5727273,13.3562645 L36.5727273,33.4539481 C36.5727273,34.1811862 35.9838704,34.7700431 35.2566323,34.7700431 L11.5433677,34.7700431 C10.8161296,34.7700431 10.2272727,34.1811862 10.2272727,33.4539481 L10.2272727,13.3562645 C10.2272727,12.6290263 10.8161296,12.0401695 11.5433677,12.0401695 L16.5362727,12.0396076 L16.5368737,11.4307026 C16.5368737,10.7034645 17.1257305,10.1146076 17.8529687,10.1146076 C18.5802069,10.1146076 19.1690637,10.7034645 19.1690637,11.4307026 L19.1682727,12.0396076 L27.6302727,12.0396076 L27.6309363,11.4307026 C27.6309363,10.7034645 28.2197931,10.1146076 28.9470313,10.1146076 Z M16.5412304,28.3220035 L14.3147554,28.3220035 C13.5815986,28.3220035 12.9872678,28.9163342 12.9872678,29.6494911 C12.9872678,30.3826479 13.5815986,30.9769786 14.3147554,30.9769786 L14.3147554,30.9769786 L16.5412304,30.9769786 C17.2743872,30.9769786 17.8687179,30.3826479 17.8687179,29.6494911 C17.8687179,28.9163342 17.2743872,28.3220035 16.5412304,28.3220035 L16.5412304,28.3220035 Z M18.7865816,22.3344002 L14.3147554,22.3344002 C13.5815986,22.3344002 12.9872678,22.9287309 12.9872678,23.6618878 C12.9872678,24.3950446 13.5815986,24.9893753 14.3147554,24.9893753 L14.3147554,24.9893753 L18.7865816,24.9893753 C19.5197385,24.9893753 20.1140692,24.3950446 20.1140692,23.6618878 C20.1140692,22.9287309 19.5197385,22.3344002 18.7865816,22.3344002 L18.7865816,22.3344002 Z M18.7865816,16.3467969 L14.3147554,16.3467969 C13.5815986,16.3467969 12.9872678,16.9411276 12.9872678,17.6742845 C12.9872678,18.4074413 13.5815986,19.001772 14.3147554,19.001772 L14.3147554,19.001772 L18.7865816,19.001772 C19.5197385,19.001772 20.1140692,18.4074413 20.1140692,17.6742845 C20.1140692,16.9411276 19.5197385,16.3467969 18.7865816,16.3467969 L18.7865816,16.3467969 Z" id="形状结合" fill="url(#linearGradient-2)" fill-rule="nonzero"></path>
                    <path d="M29.4944318,37.9212838 C23.5664534,37.9212838 18.7440341,33.0988645 18.7440341,27.170886 C18.7440341,21.2429076 23.5664534,16.4204883 29.4944318,16.4204883 C35.4224103,16.4204883 40.2448295,21.2429076 40.2448295,27.170886 C40.2448295,33.0988645 35.4224103,37.9212838 29.4944318,37.9212838 Z" id="路径" fill="url(#linearGradient-3)" fill-rule="nonzero"></path>
                    <path d="M30.2479586,21.7497087 L31.4127109,24.1096825 C31.5583748,24.4048208 31.8399382,24.6093857 32.1656447,24.6567131 L34.7698703,25.0351256 C35.3164153,25.1145425 35.6950974,25.6219848 35.6156806,26.1685298 C35.5840534,26.3861869 35.4815507,26.5873459 35.3240436,26.7408596 L33.4397335,28.5773956 C33.2040131,28.8071395 33.0964486,29.1381705 33.1520996,29.462592 L33.596963,32.0559548 C33.6903376,32.6002889 33.3247627,33.117254 32.7804286,33.2106286 C32.5636681,33.2478115 32.3406953,33.2125005 32.14603,33.1101624 L29.8165568,31.885527 C29.5252393,31.7323775 29.1772165,31.7323775 28.885899,31.885527 L26.5564258,33.1101624 C26.0675777,33.3671564 25.4629531,33.1792015 25.2059591,32.6903534 C25.1036209,32.4956881 25.0683099,32.2727152 25.1054928,32.0559548 L25.5503562,29.462592 C25.6060072,29.1381705 25.4984427,28.8071395 25.2627224,28.5773956 L23.3784122,26.7408596 C22.9829063,26.3553812 22.9747774,25.7222684 23.3602557,25.3267625 C23.5137694,25.1692555 23.7149284,25.0667527 23.9325855,25.0351256 L26.5368111,24.6567131 C26.8625176,24.6093857 27.144081,24.4048208 27.2897449,24.1096825 L28.4544972,21.7497087 C28.6989255,21.254458 29.2985538,21.0511263 29.7938045,21.2955546 C29.9910085,21.3928836 30.1506297,21.5525048 30.2479586,21.7497087 Z" id="路径" fill="#CD710F" fill-rule="nonzero"></path>
                </g>
            </g>
        </g>
    </g>
</svg>