<?xml version="1.0" encoding="UTF-8"?>
<svg width="48px" height="48px" viewBox="0 0 48 48" version="1.1" xmlns="http://www.w3.org/2000/svg" xmlns:xlink="http://www.w3.org/1999/xlink">
    <title>icon/次数增加@3x</title>
    <defs>
        <linearGradient x1="58.9148651%" y1="20.0516057%" x2="31.6953312%" y2="100%" id="linearGradient-1">
            <stop stop-color="#5B4D41" offset="0%"></stop>
            <stop stop-color="#544430" offset="100%"></stop>
        </linearGradient>
        <linearGradient x1="58.9148651%" y1="35.5314135%" x2="31.6953312%" y2="74.1558635%" id="linearGradient-2">
            <stop stop-color="#FEB978" offset="0%"></stop>
            <stop stop-color="#E28C26" offset="100%"></stop>
        </linearGradient>
        <linearGradient x1="91.867727%" y1="19.2772515%" x2="8.025098%" y2="88.3102006%" id="linearGradient-3">
            <stop stop-color="#F6C58C" offset="0%"></stop>
            <stop stop-color="#FBE3C7" offset="100%"></stop>
        </linearGradient>
    </defs>
    <g id="页面-1" stroke="none" stroke-width="1" fill="none" fill-rule="evenodd">
        <g id="我的靓号-SVIP" transform="translate(-26.000000, -1299.000000)">
            <g id="靓号特权" transform="translate(6.000000, 1169.000000)">
                <g id="icon/次数增加" transform="translate(20.000000, 130.000000)">
                    <circle id="椭圆形" fill="url(#linearGradient-1)" fill-rule="nonzero" cx="24" cy="24" r="24"></circle>
                    <rect id="矩形" x="6" y="7" width="36" height="36"></rect>
                    <path d="M34.2102845,11.9090909 C36.7288927,11.9090909 38.8319852,13.7971358 39.098061,16.3011645 L40.4976928,29.3461698 C40.6762916,31.0045876 40.0092796,32.6192669 38.7153492,33.6653459 C37.8259999,34.3943208 36.7325376,34.7697428 35.617206,34.7697428 C35.095989,34.7697428 34.5674822,34.6859107 34.0571998,34.5182465 C33.3318698,34.2776848 32.5591564,33.9423563 31.7390597,33.5888035 C29.6578365,32.6848747 27.0699757,31.5586085 24.0046364,31.5586085 C20.9611663,31.5586085 18.4024645,32.6775849 16.3467553,33.5778689 C15.5412381,33.9314217 14.7794594,34.2667501 14.0614191,34.503667 C12.4831885,35.024884 10.7700976,34.7114248 9.47252233,33.661701 C8.16036757,32.6010426 7.48606581,30.9717837 7.66466466,29.2951415 L9.06065153,16.3011645 C9.33037223,13.7971358 11.4298199,11.9090909 13.948428,11.9090909 L34.2102845,11.9090909 Z M17.7026486,15.7728427 C16.7185325,15.7728427 15.9239499,16.5710701 15.9239499,17.5515413 L15.9239499,17.5515413 L15.9233636,18.3490909 L15.1257224,18.3497688 C14.1908122,18.3497688 13.4269559,19.0701691 13.3529075,19.9828407 L13.3470238,20.1284675 C13.3470238,21.1125836 14.1452512,21.9071662 15.1257224,21.9071662 L15.1257224,21.9071662 L15.9233636,21.9070909 L15.9239499,22.7053937 C15.9239499,23.6403039 16.6443502,24.4041603 17.5570218,24.4782086 L17.7026486,24.4840923 C18.6867647,24.4840923 19.4813473,23.6858649 19.4813473,22.7053937 L19.4813473,22.7053937 L19.4803636,21.9070909 L20.2795748,21.9071662 C21.214485,21.9071662 21.9783414,21.1867659 22.0523897,20.2740944 L22.0582735,20.1284675 C22.0582735,19.1443514 21.260046,18.3497688 20.2795748,18.3497688 L20.2795748,18.3497688 L19.4803636,18.3490909 L19.4813473,17.5515413 C19.4813473,16.6166311 18.760947,15.8527748 17.8482755,15.7787264 Z M29.5503127,21.6376771 C29.0868164,21.9052768 28.801291,22.3998214 28.801291,22.9350208 C28.801291,23.4702201 29.0868164,23.9647647 29.5503127,24.2323644 C30.0138089,24.4999641 30.5848598,24.4999641 31.048356,24.2323644 C31.5118523,23.9647647 31.7973777,23.4702201 31.7973777,22.9350208 C31.7973777,22.3998214 31.5118523,21.9052768 31.048356,21.6376771 C30.5848598,21.3700774 30.0138089,21.3700774 29.5503127,21.6376771 Z M33.1058876,18.6304241 C32.2785411,18.6304241 31.6078442,19.301121 31.6078442,20.1284675 C31.6078442,20.955814 32.2785411,21.6265109 33.1058876,21.6265109 C33.9332341,21.6265109 34.603931,20.955814 34.603931,20.1284675 C34.603931,19.301121 33.9332341,18.6304241 33.1058876,18.6304241 Z M27.4891362,18.6304241 C26.6617897,18.6304241 25.9910929,19.301121 25.9910929,20.1284675 C25.9910929,20.955814 26.6617897,21.6265109 27.4891362,21.6265109 C28.3164827,21.6265109 28.9871796,20.955814 28.9871796,20.1284675 C28.9871796,19.301121 28.3164827,18.6304241 27.4891362,18.6304241 Z M29.5503127,16.0209257 C29.0868164,16.2885254 28.801291,16.78307 28.801291,17.3182694 C28.801291,17.8534687 29.0868164,18.3480134 29.5503127,18.615613 C30.0138089,18.8832127 30.5848598,18.8832127 31.048356,18.615613 C31.5118523,18.3480134 31.7973777,17.8534687 31.7973777,17.3182694 C31.7973777,16.78307 31.5118523,16.2885254 31.048356,16.0209257 C30.5848598,15.753326 30.0138089,15.753326 29.5503127,16.0209257 Z" id="形状结合" fill="url(#linearGradient-2)" fill-rule="nonzero"></path>
                    <path d="M33.30844,20.6348281 C31.4169594,18.6718482 28.5259891,17.9698554 25.9432656,18.8460964 C24.6830285,19.273592 23.3512922,19.274342 22.0900551,18.8465964 C19.5073316,17.9688554 16.6178613,18.6713482 14.7253807,20.6343281 C12.070908,23.3875498 12.1749069,27.8905036 14.9566284,30.672725 L21.2468138,36.9634104 C21.9870562,37.7031528 22.9705461,38.1101487 24.0162854,38.1101487 L24.0167853,38.1101487 C25.0627746,38.1101487 26.0467645,37.7024028 26.7857569,36.9629104 L33.0786923,30.670475 C35.8599138,27.8900036 35.9621627,23.3875498 33.30844,20.6348281 L33.30844,20.6348281 Z" id="路径" fill="url(#linearGradient-3)" fill-rule="nonzero"></path>
                    <path d="M27.2596482,26.3252272 L25.3279289,26.3252272 L25.3279289,24.3929235 C25.3279289,23.6686748 24.7407002,23.0817383 24.0167437,23.0817383 C23.292495,23.0817383 22.7055585,23.668967 22.7055585,24.3929235 L22.7055585,26.3252272 L20.7732548,26.3252272 C20.0490061,26.3252272 19.4620696,26.9124558 19.4620696,27.6364124 C19.4620696,28.360661 20.0492983,28.9475976 20.7732548,28.9475976 L22.7055585,28.9475976 L22.7055585,30.8799012 C22.7055585,31.6041499 23.2927871,32.1910864 24.0167437,32.1910864 C24.7409924,32.1910864 25.3279289,31.6038578 25.3279289,30.8799012 L25.3279289,28.9475976 L27.2596482,28.9475976 C27.9838969,28.9475976 28.5708335,28.3603689 28.5708335,27.6364124 C28.5711256,26.9124558 27.9838969,26.3252272 27.2596482,26.3252272 Z" id="路径" fill="#CD710F" fill-rule="nonzero"></path>
                </g>
            </g>
        </g>
    </g>
</svg>