<svg height="48" viewBox="0 0 48 48" width="48" xmlns="http://www.w3.org/2000/svg" xmlns:xlink="http://www.w3.org/1999/xlink"><linearGradient id="a"><stop offset="0" stop-color="#feb978"/><stop offset="1" stop-color="#e28c26"/></linearGradient><linearGradient id="b" x1="58.914865%" x2="31.695331%" xlink:href="#a" y1="20.051606%" y2="100%"/><linearGradient id="c" x1="58.914865%" x2="31.695331%" xlink:href="#a" y1="35.531414%" y2="74.155864%"/><linearGradient id="d" x1="91.867727%" x2="8.025098%" y1="19.277252%" y2="88.310201%"><stop offset="0" stop-color="#f6c58c"/><stop offset="1" stop-color="#fbe3c7"/></linearGradient><g fill="none" fill-rule="evenodd"><circle cx="24" cy="24" fill="url(#b)" fill-rule="nonzero" opacity=".2" r="24"/><path d="m6 7h36v36h-36z"/><g fill-rule="nonzero"><path d="m34.2102845 11.9090909c2.5186082 0 4.6217007 1.8880449 4.8877765 4.3920736l1.3996318 13.0450053c.1785988 1.6584178-.4884132 3.2730971-1.7823436 4.3191761-.8893493.7289749-1.9828116 1.1043969-3.0981432 1.1043969-.521217 0-1.0497238-.0838321-1.5600062-.2514963-.72533-.2405617-1.4980434-.5758902-2.3181401-.929443-2.0812232-.9039288-4.669084-2.030195-7.7344233-2.030195-3.0434701 0-5.6021719 1.1189764-7.6578811 2.0192604-.8055172.3535528-1.5672959.6888812-2.2853362.9257981-1.5782306.521217-3.2913215.2077578-4.58889677-.841966-1.31215476-1.0606584-1.98645652-2.6899173-1.80785767-4.3665595l1.39598687-12.993977c.2697207-2.5040287 2.36916837-4.3920736 4.88777647-4.3920736zm-16.5076359 3.8637518c-.9841161 0-1.7786987.7982274-1.7786987 1.7786986l-.0005863.7975496-.7976412.0006779c-.9349102 0-1.6987665.7204003-1.7728149 1.6330719l-.0058837.1456268c0 .9841161.7982274 1.7786987 1.7786986 1.7786987l.7976412-.0000753.0005863.7983028c0 .9349102.7204003 1.6987666 1.6330719 1.7728149l.1456268.0058837c.9841161 0 1.7786987-.7982274 1.7786987-1.7786986l-.0009837-.7983028.7992112.0000753c.9349102 0 1.6987666-.7204003 1.7728149-1.6330718l.0058838-.1456269c0-.9841161-.7982275-1.7786987-1.7786987-1.7786987l-.7992112-.0006779.0009837-.7975496c0-.9349102-.7204003-1.6987665-1.6330718-1.7728149zm11.8476641 5.8648344c-.4634963.2675997-.7490217.7621443-.7490217 1.2973437 0 .5351993.2855254 1.0297439.7490217 1.2973436.4634962.2675997 1.0345471.2675997 1.4980433 0 .4634963-.2675997.7490217-.7621443.7490217-1.2973436 0-.5351994-.2855254-1.029744-.7490217-1.2973437-.4634962-.2675997-1.0345471-.2675997-1.4980433 0zm3.5555749-3.007253c-.8273465 0-1.4980434.6706969-1.4980434 1.4980434s.6706969 1.4980434 1.4980434 1.4980434 1.4980434-.6706969 1.4980434-1.4980434-.6706969-1.4980434-1.4980434-1.4980434zm-5.6167514 0c-.8273465 0-1.4980433.6706969-1.4980433 1.4980434s.6706968 1.4980434 1.4980433 1.4980434 1.4980434-.6706969 1.4980434-1.4980434-.6706969-1.4980434-1.4980434-1.4980434zm2.0611765-2.6094984c-.4634963.2675997-.7490217.7621443-.7490217 1.2973437 0 .5351993.2855254 1.029744.7490217 1.2973436.4634962.2675997 1.0345471.2675997 1.4980433 0 .4634963-.2675996.7490217-.7621443.7490217-1.2973436 0-.5351994-.2855254-1.029744-.7490217-1.2973437-.4634962-.2675997-1.0345471-.2675997-1.4980433 0z" fill="url(#c)"/><path d="m33.30844 20.6348281c-1.8914806-1.9629799-4.7824509-2.6649727-7.3651744-1.7887317-1.2602371.4274956-2.5919734.4282456-3.8532105.0005-2.5827235-.877741-5.4721938-.1752482-7.3646744 1.7877317-2.6544727 2.7532217-2.5504738 7.2561755.2312477 10.0383969l6.2901854 6.2906854c.7402424.7397424 1.7237323 1.1467383 2.7694716 1.1467383h.0004999c1.0459893 0 2.0299792-.4077459 2.7689716-1.1472383l6.2929354-6.2924354c2.7812215-2.7804714 2.8834704-7.2829252.2297477-10.0356469z" fill="url(#d)"/><path d="m27.2596482 26.3252272h-1.9317193v-1.9323037c0-.7242487-.5872287-1.3111852-1.3111852-1.3111852-.7242487 0-1.3111852.5872287-1.3111852 1.3111852v1.9323037h-1.9323037c-.7242487 0-1.3111852.5872286-1.3111852 1.3111852 0 .7242486.5872287 1.3111852 1.3111852 1.3111852h1.9323037v1.9323036c0 .7242487.5872286 1.3111852 1.3111852 1.3111852.7242487 0 1.3111852-.5872286 1.3111852-1.3111852v-1.9323036h1.9317193c.7242487 0 1.3111853-.5872287 1.3111853-1.3111852.0002921-.7239566-.5869366-1.3111852-1.3111853-1.3111852z" fill="#cd710f"/></g></g></svg>