<?xml version="1.0" encoding="UTF-8"?>
<svg width="48px" height="48px" viewBox="0 0 48 48" version="1.1" xmlns="http://www.w3.org/2000/svg" xmlns:xlink="http://www.w3.org/1999/xlink">
    <title>icon/礼物折扣@3x</title>
    <defs>
        <linearGradient x1="58.9148651%" y1="20.0516057%" x2="31.6953312%" y2="100%" id="linearGradient-1">
            <stop stop-color="#5B4D41" offset="0%"></stop>
            <stop stop-color="#544430" offset="100%"></stop>
        </linearGradient>
        <linearGradient x1="58.8456696%" y1="20.0516057%" x2="31.8374086%" y2="100%" id="linearGradient-2">
            <stop stop-color="#FEB978" offset="0%"></stop>
            <stop stop-color="#E28C26" offset="100%"></stop>
        </linearGradient>
        <linearGradient x1="91.867727%" y1="33.7199352%" x2="8.025098%" y2="70.3006755%" id="linearGradient-3">
            <stop stop-color="#F6C58C" offset="0%"></stop>
            <stop stop-color="#FBE3C7" offset="100%"></stop>
        </linearGradient>
    </defs>
    <g id="页面-1" stroke="none" stroke-width="1" fill="none" fill-rule="evenodd">
        <g id="我的靓号-SVIP" transform="translate(-26.000000, -1371.000000)">
            <g id="靓号特权" transform="translate(6.000000, 1169.000000)">
                <g id="icon/礼物折扣" transform="translate(20.000000, 202.000000)">
                    <circle id="椭圆形备份-16" fill="url(#linearGradient-1)" fill-rule="nonzero" cx="24" cy="24" r="24"></circle>
                    <rect id="矩形" x="6" y="5" width="36" height="36"></rect>
                    <path d="M32.4767442,11.4333552 C33.0523256,13.2089366 32.2813953,15.0019599 30.6767442,15.6054482 C29.9337209,15.884518 29.1,15.5112622 28.8209302,14.7682389 C28.5418605,14.0252157 28.9151163,13.1914947 29.6581395,12.912425 C29.8395349,12.8426575 29.7872093,12.4868436 29.7348837,12.3263785 C29.5465116,11.7507971 28.8976744,11.2589366 27.6383721,11.6042854 C25.2890996,12.248947 24.6878616,15.1730722 24.5414813,16.9320457 L33.9,16.9310296 C35.8848837,16.9310296 37.5,18.5461459 37.5,20.5310296 L37.5,21.2670761 C37.5,22.8802286 36.4331963,24.2491453 34.9681054,24.7053097 L34.9674476,33.9542854 C34.9709302,35.9147506 33.3732558,37.512425 31.4127907,37.512425 L14.7872093,37.512425 C12.8232558,37.512425 11.2255814,35.9147506 11.2255814,33.9507971 L11.2249194,24.7031301 C9.76341893,24.2447979 8.7,22.8776675 8.7,21.2670761 L8.7,20.5310296 C8.7,18.5461459 10.3151163,16.9310296 12.3,16.9310296 L21.6469338,16.932448 C21.806532,14.5156661 22.6757651,9.97667807 26.8744186,8.8205645 C29.8744186,8.00079706 31.8802326,9.59847148 32.4767442,11.4333552 Z M18.244186,9.02637846 C19.9325581,9.58800636 21.4290698,10.9519599 21.8023256,12.2740529 C22.0186047,13.0380064 21.5755814,13.8368436 20.8081395,14.0531226 C20.0476744,14.2694017 19.2488372,13.8263785 19.0325581,13.062425 C18.9383721,12.7973087 18.2267442,12.0263785 17.2604651,11.7368436 C16.4651163,11.4961459 16.0988372,11.778704 15.9802326,11.8694017 C15.844186,11.9740529 15.8546512,12.2042854 15.8616279,12.2705645 C15.8860465,12.5356808 16.0534884,12.8880064 16.4476744,13.0868436 C17.155814,13.4461459 17.4418605,14.3112622 17.0825581,15.0228901 C16.8313953,15.5217273 16.322093,15.8112622 15.7953488,15.8112622 C15.5790698,15.8112622 15.355814,15.762425 15.1465116,15.6577738 C13.922093,15.0403319 13.1162791,13.8717273 12.994186,12.5391692 C12.8860465,11.3635878 13.3465116,10.2577738 14.2325581,9.58102962 C15.3418605,8.7333552 16.7651163,8.53451799 18.244186,9.02637846 Z" id="形状结合" fill="url(#linearGradient-2)" fill-rule="nonzero"></path>
                    <path d="M37.980263,22.2104893 C38.8690268,23.0992532 39.4288609,24.4694308 39.4267015,26.0356593 L39.4267015,33.3723178 C39.4267015,36.1083164 37.7166835,38.2539752 35.533984,38.2539752 L19.6233681,38.2539752 C18.7825278,38.2539752 17.9525792,37.9119842 17.2860063,37.2933349 L13.5878691,32.1742293 C12.9539713,31.5838984 12.5901881,30.6842428 12.5901881,29.7039886 C12.5901881,28.7237343 12.9539713,27.8240787 13.5878691,27.2337478 L17.2860063,22.1146422 C17.9525792,21.4959929 18.7825278,21.1539663 19.6233681,21.1539663 L35.533984,21.1539663 C36.4684931,21.1518147 37.3158684,21.5460947 37.980263,22.2104893 Z" id="路径" fill="url(#linearGradient-3)" fill-rule="nonzero"></path>
                    <path d="M31.5330081,36.6047768 C32.1802625,36.4429632 32.7555997,36.1732739 32.9893304,35.4720817 C33.2949783,34.6270552 33.3309369,33.9078837 33.2230612,33.0089193 C33.1691233,32.48752 32.899434,31.6964313 32.5038897,31.3548249 C32.1083453,31.0132184 31.6049253,30.8693841 31.0835259,30.8514048 C30.526168,30.7794877 29.9328515,30.7974669 29.3934729,30.9952391 C28.71026,31.2109906 28.1349228,31.9301621 27.9731092,32.6313543 C27.8292749,33.4224429 27.7393785,34.1955523 27.9551299,34.9506824 C28.1349228,35.5439988 28.6743014,36.2991289 29.2496386,36.5328597 C30.022748,36.8564868 30.7419195,36.802549 31.5330081,36.6047768 Z M31.335236,24.0372549 C31.2992774,23.5877727 30.8677745,23.3180834 30.4542509,23.4079798 C29.6631622,23.5697934 29.1957008,24.4327992 28.8181357,25.0980328 C28.45855,25.7452872 28.0630056,26.4285001 27.7213992,27.0937337 C26.8224348,28.7298489 25.8875119,30.3839433 24.9885475,32.0200585 C24.6289617,32.6313543 24.2513967,33.2786086 23.9097902,33.925863 C23.6401009,34.4113037 23.3164737,34.8967445 23.3164737,35.4541024 C23.334453,35.7777296 23.5861631,36.0833775 23.9097902,36.1373153 C24.9525889,36.2991289 25.5099468,35.0765374 25.9414497,34.3393866 C26.336994,33.6202151 26.7145591,32.9190229 27.0921241,32.2178307 C27.9910885,30.5817155 28.8900529,28.9635796 29.8069965,27.3454438 C30.148603,26.7161687 30.4902095,26.1048729 30.8138366,25.4755979 C31.0655467,25.0620742 31.3891738,24.5766335 31.335236,24.0732134 L31.335236,24.0372549 Z M24.9166303,28.7478282 C25.5459054,28.5680353 26.0673047,28.2084495 26.3190148,27.5611952 C26.5707248,26.6981894 26.6606212,25.7273079 26.5527455,24.8103642 C26.4988076,24.3069442 26.2650769,23.8035241 25.8695326,23.4619177 C25.4739882,23.1203112 24.9885475,22.9764769 24.4671481,22.9405183 C23.9097902,22.922539 23.334453,22.9405183 22.7770951,23.1203112 C22.0759029,23.3540419 21.5005657,24.0732134 21.3387521,24.7744056 C21.1949178,25.547515 21.1230007,26.3026451 21.3207728,27.0937337 C21.5005657,27.6690709 21.9500479,28.424201 22.5253851,28.6399524 C23.2984945,28.9635796 24.143521,28.927621 24.9166303,28.7478282 Z M30.8497952,35.2563302 C30.6340438,35.3102681 30.3463752,35.2743095 30.1665823,35.238351 C29.3575143,35.0765374 29.4833694,33.8359665 29.5552865,33.2786086 C29.5732658,32.9190229 29.7171001,32.613375 30.0587066,32.4515614 C30.3823337,32.2897478 30.8318159,32.3077271 31.1734224,32.48752 C31.5689667,32.7032714 31.6768424,33.3325465 31.6768424,33.6921322 C31.6948217,34.1236351 31.6588631,34.7169516 31.2992774,35.0585581 C31.1914017,35.1844131 31.0475674,35.238351 30.8497952,35.2563302 Z M24.2513967,27.3993816 C24.017666,27.4353402 23.7299974,27.3993816 23.5502045,27.3814023 C22.7411365,27.2195887 22.8669916,25.9430593 22.9029501,25.4036807 C22.9748673,25.044095 23.082743,24.7564264 23.460308,24.5766335 C23.7839352,24.3968406 24.1974588,24.4327992 24.5570446,24.6305713 C24.9705682,24.8103642 25.0065268,25.3857014 25.0065268,25.7632665 C25.0065268,26.2127486 25.0424853,26.8240444 24.6828996,27.1836302 C24.5750239,27.2915059 24.4491689,27.3814023 24.2513967,27.3993816 Z" id="形状" fill="#CD710F" fill-rule="nonzero"></path>
                </g>
            </g>
        </g>
    </g>
</svg>