<?xml version="1.0" encoding="UTF-8"?>
<svg width="48px" height="48px" viewBox="0 0 48 48" version="1.1" xmlns="http://www.w3.org/2000/svg" xmlns:xlink="http://www.w3.org/1999/xlink">
    <title>icon/平台公示@3x</title>
    <defs>
        <linearGradient x1="58.9148651%" y1="20.0516057%" x2="31.6953312%" y2="100%" id="linearGradient-1">
            <stop stop-color="#5B4D41" offset="0%"></stop>
            <stop stop-color="#544430" offset="100%"></stop>
        </linearGradient>
        <linearGradient x1="58.9148651%" y1="31.9980952%" x2="31.6953312%" y2="80.0548748%" id="linearGradient-2">
            <stop stop-color="#FEB978" offset="0%"></stop>
            <stop stop-color="#E28C26" offset="100%"></stop>
        </linearGradient>
        <linearGradient x1="22.5661466%" y1="24.7805278%" x2="92.3160835%" y2="77.7505833%" id="linearGradient-3">
            <stop stop-color="#F6C58C" offset="0%"></stop>
            <stop stop-color="#FBE3C7" offset="100%"></stop>
        </linearGradient>
    </defs>
    <g id="页面-1" stroke="none" stroke-width="1" fill="none" fill-rule="evenodd">
        <g id="我的靓号-SVIP" transform="translate(-26.000000, -1443.000000)">
            <g id="靓号特权" transform="translate(6.000000, 1169.000000)">
                <g id="icon/平台公示" transform="translate(20.000000, 274.000000)">
                    <circle id="椭圆形备份-17" fill="url(#linearGradient-1)" fill-rule="nonzero" cx="24" cy="24" r="24"></circle>
                    <rect id="矩形" x="7" y="7" width="34" height="34"></rect>
                    <path d="M31.5678977,27.6028409 L16.3862216,27.6028409 C14.6210227,27.6028409 13.1818182,26.1660511 13.1818182,24.3984375 L13.1818182,14.0680398 C13.1818182,12.3028409 14.618608,10.8636364 16.3862216,10.8636364 L31.5678977,10.8636364 C33.3330966,10.8636364 34.7723011,12.3004261 34.7723011,14.0680398 L34.7723011,24.3984375 C34.7698864,26.1636364 33.3330966,27.6028409 31.5678977,27.6028409 Z" id="路径" fill="url(#linearGradient-2)" fill-rule="nonzero"></path>
                    <path d="M34.2846723,37.4574687 L13.669447,37.4574687 C11.2724803,37.4574687 9.31818182,35.5064493 9.31818182,33.1062036 L9.31818182,19.0785379 C9.31818182,16.6815712 11.2692012,14.7272727 13.669447,14.7272727 L34.2846723,14.7272727 C36.6816391,14.7272727 38.6359375,16.6782921 38.6359375,19.0785379 L38.6359375,33.1062036 C38.6326585,35.5031703 36.6816391,37.4574687 34.2846723,37.4574687 Z" id="路径备份-3" fill="url(#linearGradient-3)" fill-rule="nonzero"></path>
                    <path d="M19.7328241,31.0924665 C19.499819,31.0924665 19.266814,31.0345235 19.0523014,30.9186373 C19.0387403,30.9112404 19.026412,30.9038434 19.0128508,30.8952136 L16.3893866,29.1840442 L15.4857215,29.1840442 C14.6412323,29.1840442 13.9545455,28.4973574 13.9545455,27.6528682 L13.9545455,24.3242246 C13.9545455,23.4797354 14.6412323,22.7930486 15.4857215,22.7930486 L16.3906194,22.7930486 L19.0153165,21.1040702 C19.0276448,21.0966732 19.0399731,21.0892762 19.0523014,21.0831121 C19.5010519,20.8402444 20.0299363,20.8525727 20.4675913,21.1139329 C20.9311358,21.3913198 21.2085227,21.8881507 21.2085227,22.4429246 L21.2085227,29.5588248 C21.2085227,30.1148316 20.9311358,30.6116624 20.4675913,30.8878166 C20.2395176,31.023428 19.9867873,31.0924665 19.7328241,31.0924665 Z M29.1846672,24.9709444 L25.6597162,24.9709444 C24.8497972,24.9709444 24.1939923,24.3151396 24.1939923,23.5052206 C24.1939923,22.6953016 24.8497972,22.0394968 25.6597162,22.0394968 L29.1846672,22.0394968 C29.9945862,22.0394968 30.650391,22.6953016 30.650391,23.5052206 C30.650391,24.3151396 29.9945862,24.9709444 29.1846672,24.9709444 Z M32.3030193,30.1386866 L25.6597162,30.1386866 C24.8497972,30.1386866 24.1939923,29.4828818 24.1939923,28.6729628 C24.1939923,27.8630438 24.8497972,27.207239 25.6597162,27.207239 L32.3030193,27.207239 C33.1129382,27.207239 33.7687431,27.8630438 33.7687431,28.6729628 C33.7687431,29.4828818 33.1129382,30.1386866 32.3030193,30.1386866 Z" id="形状结合" fill="#CD710F" fill-rule="nonzero"></path>
                </g>
            </g>
        </g>
    </g>
</svg>