<?xml version="1.0" encoding="UTF-8"?>
<svg width="48px" height="48px" viewBox="0 0 48 48" version="1.1" xmlns="http://www.w3.org/2000/svg" xmlns:xlink="http://www.w3.org/1999/xlink">
    <title>icon/聊天气泡@3x</title>
    <defs>
        <linearGradient x1="58.9148651%" y1="20.0516057%" x2="31.6953312%" y2="100%" id="linearGradient-1">
            <stop stop-color="#5B4D41" offset="0%"></stop>
            <stop stop-color="#544430" offset="100%"></stop>
        </linearGradient>
        <linearGradient x1="58.9148651%" y1="24.8054051%" x2="31.6953312%" y2="92.0633484%" id="linearGradient-2">
            <stop stop-color="#FEB978" offset="0%"></stop>
            <stop stop-color="#E28C26" offset="100%"></stop>
        </linearGradient>
        <linearGradient x1="91.867727%" y1="16.2674261%" x2="8.025098%" y2="92.0633484%" id="linearGradient-3">
            <stop stop-color="#F6C58C" offset="0%"></stop>
            <stop stop-color="#FBE3C7" offset="100%"></stop>
        </linearGradient>
    </defs>
    <g id="页面-1" stroke="none" stroke-width="1" fill="none" fill-rule="evenodd">
        <g id="我的靓号-SVIP" transform="translate(-26.000000, -1515.000000)">
            <g id="靓号特权" transform="translate(6.000000, 1169.000000)">
                <g id="icon/聊天气泡" transform="translate(20.000000, 346.000000)">
                    <circle id="椭圆形备份-18" fill="url(#linearGradient-1)" fill-rule="nonzero" cx="24" cy="24" r="24"></circle>
                    <rect id="矩形" x="7" y="7" width="34" height="34"></rect>
                    <path d="M35.3823607,33.648556 C35.3823607,35.5783453 33.8338275,35.0583357 30.7367612,32.088527 L13.2079321,32.088527 C11.188874,32.088527 9.54545455,30.4451076 9.54545455,28.4260494 L9.54545455,14.7533867 C9.54545455,12.7343285 11.188874,11.0909091 13.2079321,11.0909091 L31.7198782,11.0909091 C33.7389363,11.0909091 35.3823607,12.7343285 35.3823607,14.7533867 L35.3823607,28.4231147 C35.3823607,29.7691535 35.3823607,30.9909576 35.3823607,32.088527 L35.3823607,33.648556 Z" id="路径" fill="url(#linearGradient-2)" fill-rule="nonzero"></path>
                    <path d="M38.0778448,36.4049433 C38.0778448,38.3347326 36.5293116,37.8147229 33.4322453,34.8449143 L15.9034162,34.8449143 C13.8843581,34.8449143 12.2409386,33.2014948 12.2409386,31.1824367 L12.2409386,17.509774 C12.2409386,15.4907158 13.8843581,13.8472964 15.9034162,13.8472964 L34.4153622,13.8472964 C36.4344204,13.8472964 38.0778448,15.4907158 38.0778448,17.509774 L38.0778448,31.179502 C38.0778448,32.5255408 38.0778448,33.7473449 38.0778448,34.8449143 L38.0778448,36.4049433 Z" id="路径" fill="url(#linearGradient-3)" fill-rule="nonzero"></path>
                    <path d="M31.3192774,22.9125153 L18.999501,22.9125153 C18.2863744,22.9125153 17.7082429,22.3343839 17.7082429,21.6212572 C17.7082429,20.9081306 18.2863744,20.3299991 18.999501,20.3299991 L31.3192774,20.3299991 C32.0324041,20.3299991 32.6105355,20.9081306 32.6105355,21.6212572 C32.6105355,22.3343839 32.0324041,22.9125153 31.3192774,22.9125153 L31.3192774,22.9125153 Z M26.8468288,28.8141519 L18.999501,28.8141519 C18.2863744,28.8141519 17.7082429,28.2360204 17.7082429,27.5228938 C17.7082429,26.8097671 18.2863744,26.2316356 18.999501,26.2316356 L26.8438941,26.2316356 C27.5570208,26.2316356 28.1351634,26.8097671 28.1351634,27.5228938 C28.1380869,28.2360204 27.5599555,28.8141519 26.8468288,28.8141519 L26.8468288,28.8141519 Z" id="形状" fill="#CD710F" fill-rule="nonzero"></path>
                </g>
            </g>
        </g>
    </g>
</svg>