<?xml version="1.0" encoding="UTF-8"?>
<svg width="48px" height="48px" viewBox="0 0 48 48" version="1.1" xmlns="http://www.w3.org/2000/svg" xmlns:xlink="http://www.w3.org/1999/xlink">
    <title>icon/ID高亮@3x</title>
    <defs>
        <linearGradient x1="58.9148651%" y1="20.0516057%" x2="31.6953312%" y2="100%" id="linearGradient-1">
            <stop stop-color="#5B4D41" offset="0%"></stop>
            <stop stop-color="#544430" offset="100%"></stop>
        </linearGradient>
        <linearGradient x1="58.9148651%" y1="22.7922534%" x2="31.6953312%" y2="95.4243828%" id="linearGradient-2">
            <stop stop-color="#FEB978" offset="0%"></stop>
            <stop stop-color="#E28C26" offset="100%"></stop>
        </linearGradient>
        <linearGradient x1="91.867727%" y1="31.2202147%" x2="8.025098%" y2="73.4177402%" id="linearGradient-3">
            <stop stop-color="#F6C58C" offset="0%"></stop>
            <stop stop-color="#FBE3C7" offset="100%"></stop>
        </linearGradient>
    </defs>
    <g id="页面-1" stroke="none" stroke-width="1" fill="none" fill-rule="evenodd">
        <g id="我的靓号-SVIP" transform="translate(-26.000000, -1587.000000)">
            <g id="靓号特权" transform="translate(6.000000, 1169.000000)">
                <g id="icon/ID高亮" transform="translate(20.000000, 418.000000)">
                    <circle id="椭圆形备份-18" fill="url(#linearGradient-1)" fill-rule="nonzero" cx="24" cy="24" r="24"></circle>
                    <rect id="矩形" x="7" y="7" width="34" height="34"></rect>
                    <path d="M23.9875662,9.4375498 C26.0532186,9.8685592 27.732559,11.5447069 28.1667611,13.6103594 C28.5466879,15.4078282 28.0294766,17.2052971 26.8322282,18.49194 L28.6233118,21.6143637 L33.1728555,18.0258113 C33.9933697,17.3777008 35.0916455,17.3234256 35.9728203,17.8885268 C36.8508024,18.4504354 37.2626558,19.4720873 37.0200135,20.4873539 L33.4314611,35.4385912 C33.2782133,36.0771237 32.7067268,36.5240964 32.052231,36.5240964 L13.6018358,36.5240964 C12.9441474,36.5240964 12.3758535,36.073931 12.2226057,35.4353986 L8.61489738,20.3979593 C8.37225505,19.3922707 8.77772316,18.3801968 9.63974197,17.8119029 C10.5049534,17.2468017 11.5936513,17.281921 12.4205508,17.9044901 L17.334058,21.6143637 L18.9335818,18.6068758 C17.9342785,17.5979945 17.3659846,16.2411131 17.3659846,14.7788738 C17.3659846,13.1282674 18.100297,11.5830188 19.3837472,10.5390183 C20.6671974,9.49501772 22.3433451,9.09593493 23.9875662,9.4375498 Z M25.6700992,28.8744776 L19.9552337,28.8744776 C19.1698388,28.8744776 18.534499,29.5130101 18.534499,30.2952123 C18.534499,31.0806073 19.1730315,31.715947 19.9552337,31.715947 L19.9552337,31.715947 L25.6700992,31.715947 C26.4523014,31.715947 27.0876412,31.0806073 27.0908339,30.2952123 C27.0908339,29.5098174 26.4523014,28.8744776 25.6700992,28.8744776 L25.6700992,28.8744776 Z" id="形状结合" fill="url(#linearGradient-2)" fill-rule="nonzero"></path>
                    <path d="M35.1441761,38.0539773 L19.781392,38.0539773 C17.4221591,38.0539773 15.5,36.134233 15.5,33.7725852 L15.5,25.9632102 C15.5,23.6039773 17.4197443,21.6818182 19.781392,21.6818182 L35.1417614,21.6818182 C37.5009943,21.6818182 39.4231557,23.6015625 39.4231557,25.9632102 L39.4231557,33.7725852 C39.4255682,36.1318182 37.5034091,38.0539773 35.1441761,38.0539773 Z" id="路径" fill="url(#linearGradient-3)" fill-rule="nonzero"></path>
                    <path d="M21.3045099,33.7587003 L21.3045099,25.914462 C21.3045099,25.5069691 21.3973278,25.2013494 21.5829634,24.997603 C21.7685991,24.7938565 22.0085671,24.6919833 22.3028675,24.6919833 C22.6062234,24.6919833 22.851851,24.7927246 23.0397505,24.9942072 C23.22765,25.1956898 23.3215998,25.5024414 23.3215998,25.914462 L23.3215998,33.7587003 C23.3215998,34.1707209 23.22765,34.4786044 23.0397505,34.6823509 C22.851851,34.8860973 22.6062234,34.9879705 22.3028675,34.9879705 C22.0130948,34.9879705 21.7742587,34.8849654 21.5863592,34.6789551 C21.3984597,34.4729448 21.3045099,34.1661932 21.3045099,33.7587003 Z M26.8260387,24.861772 L29.4543679,24.861772 C30.1380504,24.861772 30.7243874,24.9251598 31.2133789,25.0519354 C31.7023704,25.1787109 32.1460849,25.4164151 32.5445224,25.7650479 C33.5813654,26.6524769 34.0997869,28.0017312 34.0997869,29.8128107 C34.0997869,30.410467 34.0477184,30.9560547 33.9435813,31.4495739 C33.8394442,31.943093 33.6787109,32.3879395 33.4613814,32.7841131 C33.2440518,33.1802868 32.9655984,33.5345792 32.626021,33.8469904 C32.3588867,34.0869585 32.0668501,34.2793857 31.7499112,34.424272 C31.4329723,34.5691584 31.092263,34.6710316 30.7277832,34.7298917 C30.3633034,34.7887518 29.9524148,34.8181818 29.4951172,34.8181818 L26.866788,34.8181818 C26.5000444,34.8181818 26.2238548,34.7627175 26.0382191,34.6517889 C25.8525835,34.5408603 25.7314675,34.3846547 25.6748713,34.1831721 C25.618275,33.9816895 25.5899769,33.7202148 25.5899769,33.3987482 L25.5899769,26.0978338 C25.5899769,25.6631747 25.6873224,25.3484996 25.8820135,25.1538086 C26.0767045,24.9591175 26.3913796,24.861772 26.8260387,24.861772 Z M27.6070668,26.4577859 L27.6070668,33.2153764 L29.1351651,33.2153764 C29.4702148,33.2153764 29.7328214,33.206321 29.9229847,33.1882102 C30.1131481,33.1700994 30.310103,33.1248224 30.5138494,33.0523793 C30.7175959,32.9799361 30.8941761,32.8780629 31.0435902,32.7467596 C31.7182173,32.1762695 32.0555309,31.1937589 32.0555309,29.7992276 C32.0555309,28.816717 31.9072488,28.0809659 31.6106845,27.5919744 C31.3141202,27.102983 30.9485085,26.7917037 30.5138494,26.6581365 C30.0791903,26.5245694 29.5539773,26.4577859 28.9382102,26.4577859 L27.6070668,26.4577859 Z" id="形状结合" fill="#CD710F" fill-rule="nonzero"></path>
                </g>
            </g>
        </g>
    </g>
</svg>