<?xml version="1.0" encoding="UTF-8"?>
<svg width="375px" height="108px" viewBox="0 0 375 108" version="1.1" xmlns="http://www.w3.org/2000/svg" xmlns:xlink="http://www.w3.org/1999/xlink">
    <title>靓号商城-bg@3x</title>
    <defs>
        <path d="M0,87 C62.5,100.333333 125,107 187.5,107 C250,107 312.5,100.333333 375,87 L375,0 L0,0 L0,87 Z" id="path-1"></path>
        <linearGradient x1="0%" y1="42.6035503%" x2="51.5064902%" y2="50.7416263%" id="linearGradient-3">
            <stop stop-color="#363638" offset="0%"></stop>
            <stop stop-color="#525454" offset="50.907606%"></stop>
            <stop stop-color="#232325" offset="100%"></stop>
        </linearGradient>
        <linearGradient x1="50%" y1="0%" x2="50%" y2="100%" id="linearGradient-4">
            <stop stop-color="#46494B" offset="0%"></stop>
            <stop stop-color="#363943" offset="100%"></stop>
        </linearGradient>
        <path d="M15,0 L336,0 C344.284271,-1.52179594e-15 351,6.71572875 351,15 L351,120 C351,128.284271 344.284271,135 336,135 L15,135 C6.71572875,135 1.01453063e-15,128.284271 0,120 L0,15 C-1.01453063e-15,6.71572875 6.71572875,1.52179594e-15 15,0 Z" id="path-5"></path>
        <linearGradient x1="39.8182924%" y1="44.2844805%" x2="97.9391779%" y2="64.4126059%" id="linearGradient-7">
            <stop stop-color="#2E2F31" offset="0%"></stop>
            <stop stop-color="#141518" offset="100%"></stop>
        </linearGradient>
        <linearGradient x1="50%" y1="0%" x2="50%" y2="100%" id="linearGradient-8">
            <stop stop-color="#3B3C40" offset="0%"></stop>
            <stop stop-color="#272A2D" offset="100%"></stop>
        </linearGradient>
        <linearGradient x1="33.2619947%" y1="46.5885337%" x2="81.3962021%" y2="58.8973737%" id="linearGradient-9">
            <stop stop-color="#2F3032" offset="0%"></stop>
            <stop stop-color="#1B1C1F" offset="100%"></stop>
        </linearGradient>
        <linearGradient x1="0%" y1="0%" x2="100%" y2="0%" id="linearGradient-10">
            <stop stop-color="#FFF3A7" stop-opacity="0" offset="0%"></stop>
            <stop stop-color="#FFF3A7" offset="46.7198939%"></stop>
            <stop stop-color="#FFF3A7" stop-opacity="0" offset="100%"></stop>
        </linearGradient>
    </defs>
    <g id="页面-1" stroke="none" stroke-width="1" fill="none" fill-rule="evenodd">
        <g id="切图" transform="translate(-1096.000000, -153.000000)">
            <g id="编组" transform="translate(1096.000000, 153.000000)">
                <g id="编组-2">
                    <mask id="mask-2" fill="white">
                        <use xlink:href="#path-1"></use>
                    </mask>
                    <g id="矩形"></g>
                    <g id="SVIP-卡片" mask="url(#mask-2)">
                        <g transform="translate(12.000000, 1.000000)">
                            <mask id="mask-6" fill="white">
                                <use xlink:href="#path-5"></use>
                            </mask>
                            <path stroke="url(#linearGradient-4)" stroke-width="1" d="M336,-0.5 C340.280207,-0.5 344.155207,1.23489659 346.960155,4.03984489 C349.765103,6.84479319 351.5,10.7197932 351.5,15 L351.5,15 L351.5,120 C351.5,124.280207 349.765103,128.155207 346.960155,130.960155 C344.155207,133.765103 340.280207,135.5 336,135.5 L336,135.5 L15,135.5 C10.7197932,135.5 6.84479319,133.765103 4.03984489,130.960155 C1.23489659,128.155207 -0.5,124.280207 -0.5,120 L-0.5,120 L-0.5,15 C-0.5,10.7197932 1.23489659,6.84479319 4.03984489,4.03984489 C6.84479319,1.23489659 10.7197932,-0.5 15,-0.5 L15,-0.5 Z"></path>
                            <polygon id="路径-65" stroke="url(#linearGradient-8)" stroke-width="1" fill="url(#linearGradient-7)" fill-rule="evenodd" mask="url(#mask-6)" points="255 -12.0045815 109.852097 137.678543 373.314026 137.678543 373.314026 -12.0045815"></polygon>
                            <polygon id="三角形" stroke="none" fill="url(#linearGradient-9)" fill-rule="evenodd" mask="url(#mask-6)" points="293.5 50 390 144 197 144"></polygon>
                        </g>
                    </g>
                </g>
                <path d="M0,87 C62.5,99.6666667 125,106 187.5,106 C250,106 312.5,99.6666667 375,87 L375,87.9530864 C312.5,101.317695 250,108 187.5,108 C125,108 62.5,101.317695 0,87.9530864 L0,87 Z" id="路径-71" fill="url(#linearGradient-10)"></path>
            </g>
        </g>
    </g>
</svg>