<?xml version="1.0" encoding="UTF-8"?>
<svg width="313px" height="440px" viewBox="0 0 313 440" version="1.1" xmlns="http://www.w3.org/2000/svg" xmlns:xlink="http://www.w3.org/1999/xlink">
    <title>卡片-SSSVIP@3x</title>
    <defs>
        <linearGradient x1="24.6980888%" y1="0%" x2="75.3019112%" y2="100%" id="linearGradient-1">
            <stop stop-color="#EFF088" offset="0%"></stop>
            <stop stop-color="#9E9D73" offset="71.6641513%"></stop>
            <stop stop-color="#6E602A" offset="100%"></stop>
        </linearGradient>
        <path d="M15,20 L86.5,20 L86.5,20 C99.8333333,6.66666667 123.166667,0 156.5,0 C189.833333,0 213.166667,6.66666667 226.5,20 L298,20 C306.284271,20 313,26.7157288 313,35 L313,405 C313,413.284271 306.284271,420 298,420 L226.5,420 L226.5,420 C213.166667,433.333333 189.833333,440 156.5,440 C123.166667,440 99.8333333,433.333333 86.5,420 L15,420 C6.71572875,420 1.01453063e-15,413.284271 0,405 L0,35 C-1.01453063e-15,26.7157288 6.71572875,20 15,20 Z" id="path-2"></path>
        <linearGradient x1="50%" y1="0%" x2="50%" y2="100%" id="linearGradient-4">
            <stop stop-color="#A2934D" offset="0%"></stop>
            <stop stop-color="#504D29" offset="100%"></stop>
        </linearGradient>
        <linearGradient x1="19.101466%" y1="0%" x2="80.898534%" y2="100%" id="linearGradient-5">
            <stop stop-color="#EFF088" offset="0%"></stop>
            <stop stop-color="#9E9D73" offset="71.6641513%"></stop>
            <stop stop-color="#6E602A" offset="100%"></stop>
        </linearGradient>
        <filter x="-79.8%" y="-154.6%" width="259.6%" height="409.3%" filterUnits="objectBoundingBox" id="filter-6">
            <feGaussianBlur stdDeviation="50" in="SourceGraphic"></feGaussianBlur>
        </filter>
        <filter x="-78.1%" y="-170.5%" width="256.2%" height="440.9%" filterUnits="objectBoundingBox" id="filter-7">
            <feGaussianBlur stdDeviation="50" in="SourceGraphic"></feGaussianBlur>
        </filter>
    </defs>
    <g id="页面-1" stroke="none" stroke-width="1" fill="none" fill-rule="evenodd">
        <g id="切图" transform="translate(-742.000000, -93.000000)">
            <g id="卡片" transform="translate(742.000000, 93.000000)">
                <mask id="mask-3" fill="white">
                    <use xlink:href="#path-2"></use>
                </mask>
                <path stroke="url(#linearGradient-1)" stroke-width="2" d="M156.5,1 C189.705884,1 212.934646,7.6047424 226.083078,21 L226.083078,21 L298,21 C301.865993,21 305.365993,22.5670034 307.899495,25.1005051 C310.432997,27.6340068 312,31.1340068 312,35 L312,35 L312,405 C312,408.865993 310.432997,412.365993 307.899495,414.899495 C305.365993,417.432997 301.865993,419 298,419 L298,419 L226.083078,419 C212.934646,432.395258 189.705884,439 156.5,439 C123.294116,439 100.065354,432.395258 86.916922,419 L86.916922,419 L15,419 C11.1340068,419 7.63400675,417.432997 5.10050506,414.899495 C2.56700338,412.365993 1,408.865993 1,405 L1,405 L1,35 C1,31.1340068 2.56700338,27.6340068 5.10050506,25.1005051 C7.63400675,22.5670034 11.1340068,21 15,21 L15,21 L86.916922,21 C100.065354,7.6047424 123.294116,1 156.5,1 Z"></path>
                <path d="M39,40 C25.8777143,40 15.2151543,50.5313372 15.0032153,63.6031161 L15,64 L15,40 L39,40 L39,40 Z M274,40 C287.122286,40 297.784846,50.5313372 297.996785,63.6031161 L298,64 L298,40 L274,40 L274,40 Z M39,400 C25.8777143,400 15.2151543,389.468663 15.0032153,376.396884 L15,376 L15,400 L39,400 L39,400 Z M274,400 C287.122286,400 297.784846,389.468663 297.996785,376.396884 L298,376 L298,400 L274,400 L274,400 Z" id="形状结合" fill="url(#linearGradient-4)" mask="url(#mask-3)"></path>
                <path d="M257.011956,41 C257.270538,51.8026435 261.70741,61.5704035 268.76839,68.7491508 C276.059032,76.1613916 286.147302,80.8133239 297.330426,80.9946083 L297,80.987 L297,359.011956 C286.390261,359.26592 276.778775,363.550283 269.637893,370.392642 L269.250849,370.76839 C261.838608,378.059032 257.186676,388.147302 257.005392,399.330426 L257.012,399 L55.9880436,399 C55.7340799,388.390261 51.4497172,378.778775 44.6073579,371.637893 L44.2316103,371.250849 C36.9409676,363.838608 26.8526978,359.186676 15.6695743,359.005392 L16,359.012 L16,80.9880436 C26.6097392,80.7340799 36.2212249,76.4497172 43.3621071,69.6073579 L43.7491508,69.2316103 C51.1613916,61.9409676 55.8133239,51.8526978 55.9946083,40.6695743 L55.987,41 Z" id="路径" stroke="url(#linearGradient-5)" stroke-width="2" fill="#2E2409" opacity="0.349999994" mask="url(#mask-3)"></path>
                <ellipse id="椭圆形" stroke="#979797" fill="#7D602E" filter="url(#filter-6)" mask="url(#mask-3)" cx="62.6237624" cy="35.5" rx="93.5" ry="48"></ellipse>
                <ellipse id="椭圆形备份-15" stroke="#979797" fill="#A58532" filter="url(#filter-7)" mask="url(#mask-3)" cx="163.123762" cy="434" rx="95.5" ry="43.5"></ellipse>
            </g>
        </g>
    </g>
</svg>