<?xml version="1.0" encoding="UTF-8"?>
<svg width="365px" height="592px" viewBox="0 0 365 592" version="1.1" xmlns="http://www.w3.org/2000/svg" xmlns:xlink="http://www.w3.org/1999/xlink">
    <title>SSS@3x</title>
    <defs>
        <linearGradient x1="31.5656185%" y1="1.30107829%" x2="68.3053397%" y2="98.3580263%" id="linearGradient-1">
            <stop stop-color="#34281E" offset="0%"></stop>
            <stop stop-color="#121007" offset="61.4145132%"></stop>
            <stop stop-color="#292219" offset="100%"></stop>
        </linearGradient>
        <linearGradient x1="31.7074564%" y1="1.67577784%" x2="68.9268888%" y2="100%" id="linearGradient-2">
            <stop stop-color="#6B685B" offset="0%"></stop>
            <stop stop-color="#544A38" offset="100%"></stop>
        </linearGradient>
        <linearGradient x1="0%" y1="0%" x2="100%" y2="0%" id="linearGradient-3">
            <stop stop-color="#FFEC74" stop-opacity="0" offset="0%"></stop>
            <stop stop-color="#FFEC74" offset="47.6239825%"></stop>
            <stop stop-color="#FFEC74" stop-opacity="0" offset="100%"></stop>
        </linearGradient>
    </defs>
    <g id="页面-1" stroke="none" stroke-width="1" fill="none" fill-rule="evenodd">
        <g id="切图" transform="translate(-857.000000, -617.000000)">
            <g id="SSS" transform="translate(858.000000, 617.000000)">
                <path d="M6.01518667,0.868909606 L167.673472,10.5094568 L180.628143,19.762793 C180.888916,19.9490595 181.194458,20.0421928 181.5,20.0421928 C181.805542,20.0421928 182.111084,19.9490595 182.371857,19.762793 L182.371857,19.762793 L195.326513,10.5094671 L356.61263,0.880445246 C358.404365,0.773475983 360.069835,1.40287766 361.314113,2.50695544 C362.561902,3.61414868 363.38612,5.19870066 363.489335,6.99669496 L363.489335,6.99669496 L363.5,571 C363.5,576.660919 361.205459,581.785919 357.495689,585.495689 C353.785919,589.205459 348.660919,591.5 343,591.5 L343,591.5 L20,591.5 C14.3390813,591.5 9.21408131,589.205459 5.50431099,585.495689 C1.79454066,581.785919 -0.5,576.660919 -0.5,571 L-0.5,571 L-0.5,7.36889225 C-0.5,5.57396681 0.227537282,3.94896681 1.40380592,2.77269817 C2.58339111,1.59311299 4.21424165,0.864793168 6.01518667,0.868909606 L6.01518667,0.868909606 Z" id="蒙版" stroke="url(#linearGradient-2)" fill="url(#linearGradient-1)"></path>
                <path d="M6,0 L167.888795,9.96238739 C168.287138,9.98690082 168.669038,10.1300296 168.985372,10.3733632 L180.280578,19.0619834 C180.999482,19.6149861 182.000518,19.6149861 182.719422,19.0619834 L194.014628,10.3733632 C194.330962,10.1300296 194.712862,9.98690082 195.111205,9.96238739 L357,0 L357,0 L357,0.953086376 L196.164292,11.9545611 C195.733066,11.9840578 195.323,12.1524622 194.995508,12.4345532 L182.805269,22.9348284 C182.05506,23.5810344 180.94494,23.5810344 180.194731,22.9348284 L168.004492,12.4345532 C167.677,12.1524622 167.266934,11.9840578 166.835708,11.9545611 L6,0.953086376 L6,0.953086376 L6,0 Z" id="路径-71" fill="url(#linearGradient-3)"></path>
            </g>
        </g>
    </g>
</svg>