<?xml version="1.0" encoding="UTF-8"?>
<svg width="273px" height="440px" viewBox="0 0 273 440" version="1.1" xmlns="http://www.w3.org/2000/svg" xmlns:xlink="http://www.w3.org/1999/xlink">
    <title>卡片-SVIP@3x</title>
    <defs>
        <linearGradient x1="30.7518079%" y1="0%" x2="69.2481921%" y2="100%" id="linearGradient-1">
            <stop stop-color="#9DF5FF" offset="0%"></stop>
            <stop stop-color="#4E6E99" offset="70.484935%"></stop>
            <stop stop-color="#466597" offset="100%"></stop>
        </linearGradient>
        <path d="M15,20 L66.5,20 L66.5,20 C79.8333333,6.66666667 103.166667,0 136.5,0 C169.833333,0 193.166667,6.66666667 206.5,20 L258,20 C266.284271,20 273,26.7157288 273,35 L273,405 C273,413.284271 266.284271,420 258,420 L206.5,420 L206.5,420 C193.166667,433.333333 169.833333,440 136.5,440 C103.166667,440 79.8333333,433.333333 66.5,420 L15,420 C6.71572875,420 1.01453063e-15,413.284271 0,405 L0,35 C-1.01453063e-15,26.7157288 6.71572875,20 15,20 Z" id="path-2"></path>
        <linearGradient x1="50%" y1="0%" x2="50%" y2="100%" id="linearGradient-4">
            <stop stop-color="#3E4C5F" offset="0%"></stop>
            <stop stop-color="#34395D" offset="100%"></stop>
        </linearGradient>
        <linearGradient x1="27.21875%" y1="0%" x2="72.78125%" y2="100%" id="linearGradient-5">
            <stop stop-color="#9DF5FF" offset="0%"></stop>
            <stop stop-color="#4E6E99" offset="70.484935%"></stop>
            <stop stop-color="#466597" offset="100%"></stop>
        </linearGradient>
        <filter x="-79.8%" y="-154.6%" width="259.6%" height="409.3%" filterUnits="objectBoundingBox" id="filter-6">
            <feGaussianBlur stdDeviation="50" in="SourceGraphic"></feGaussianBlur>
        </filter>
        <filter x="-78.1%" y="-170.5%" width="256.2%" height="440.9%" filterUnits="objectBoundingBox" id="filter-7">
            <feGaussianBlur stdDeviation="50" in="SourceGraphic"></feGaussianBlur>
        </filter>
    </defs>
    <g id="页面-1" stroke="none" stroke-width="1" fill="none" fill-rule="evenodd">
        <g id="切图" transform="translate(-62.000000, -93.000000)">
            <g id="卡片" transform="translate(62.000000, 93.000000)">
                <mask id="mask-3" fill="white">
                    <use xlink:href="#path-2"></use>
                </mask>
                <path stroke="url(#linearGradient-1)" stroke-width="2" d="M136.5,1 C169.705884,1 192.934646,7.6047424 206.083078,21 L206.083078,21 L258,21 C261.865993,21 265.365993,22.5670034 267.899495,25.1005051 C270.432997,27.6340068 272,31.1340068 272,35 L272,35 L272,405 C272,408.865993 270.432997,412.365993 267.899495,414.899495 C265.365993,417.432997 261.865993,419 258,419 L258,419 L206.083078,419 C192.934646,432.395258 169.705884,439 136.5,439 C103.294116,439 80.0653541,432.395258 66.916922,419 L66.916922,419 L15,419 C11.1340068,419 7.63400675,417.432997 5.10050506,414.899495 C2.56700338,412.365993 1,408.865993 1,405 L1,405 L1,35 C1,31.1340068 2.56700338,27.6340068 5.10050506,25.1005051 C7.63400675,22.5670034 11.1340068,21 15,21 L15,21 L66.916922,21 C80.0653541,7.6047424 103.294116,1 136.5,1 Z"></path>
                <path d="M39,40 C25.8777143,40 15.2151543,50.5313372 15.0032153,63.6031161 L15,64 L15,40 L39,40 L39,40 Z M234,40 C247.122286,40 257.784846,50.5313372 257.996785,63.6031161 L258,64 L258,40 L234,40 L234,40 Z M39,400 C25.8777143,400 15.2151543,389.468663 15.0032153,376.396884 L15,376 L15,400 L39,400 L39,400 Z M234,400 C247.122286,400 257.784846,389.468663 257.996785,376.396884 L258,376 L258,400 L234,400 L234,400 Z" id="形状结合" fill="url(#linearGradient-4)" mask="url(#mask-3)"></path>
                <path d="M217.011956,41 C217.270538,51.8026435 221.70741,61.5704035 228.76839,68.7491508 C236.059032,76.1613916 246.147302,80.8133239 257.330426,80.9946083 L257,80.987 L257,359.011956 C246.390261,359.26592 236.778775,363.550283 229.637893,370.392642 L229.250849,370.76839 C221.838608,378.059032 217.186676,388.147302 217.005392,399.330426 L217.012,399 L55.9880436,399 C55.7340799,388.390261 51.4497172,378.778775 44.6073579,371.637893 L44.2316103,371.250849 C36.9409676,363.838608 26.8526978,359.186676 15.6695743,359.005392 L16,359.012 L16,80.9880436 C26.6097392,80.7340799 36.2212249,76.4497172 43.3621071,69.6073579 L43.7491508,69.2316103 C51.1613916,61.9409676 55.8133239,51.8526978 55.9946083,40.6695743 L55.987,41 Z" id="路径" stroke="url(#linearGradient-5)" stroke-width="2" fill="#1C1D2D" opacity="0.349999994" mask="url(#mask-3)"></path>
                <ellipse id="椭圆形" stroke="#979797" fill="#3996C3" filter="url(#filter-6)" mask="url(#mask-3)" cx="42.6237624" cy="35.5" rx="93.5" ry="48"></ellipse>
                <ellipse id="椭圆形备份-15" stroke="#979797" fill="#2E438D" filter="url(#filter-7)" mask="url(#mask-3)" cx="143.123762" cy="434" rx="95.5" ry="43.5"></ellipse>
            </g>
        </g>
    </g>
</svg>